# xmcd
#
# Track frame offsets: 
#        150
#        19743
#        45936
#        66461
#        90589
#        113713
#        133961
#        154902
#
# Disc length: 2348 seconds
#
# Revision: 1
# Processed by: cddbd v1.5.2PL0 Copyright (c) Steve Scherf et al.
# Submitted via: ExactAudioCopy v0.99pb5
#
DISCID=66092a08
DTITLE=Junito Y Secreto A Voces - Bailalo...
DYEAR=2005
DGENRE=Salsa
TTITLE0=Homicidio Del Amor 
TTITLE1=El Protagonista
TTITLE2=Bailalo 
TTITLE3=Pent Up House
TTITLE4=Bandolera
TTITLE5=Hoy Termina Nuestro Amor
TTITLE6=Contigo Valgo Un Millon
TTITLE7=Beautiful Love 
EXTD=YEAR: 2005
EXTT0=
EXTT1=
EXTT2=
EXTT3=
EXTT4=
EXTT5=
EXTT6=
EXTT7=
PLAYORDER=
